<svg width="50" height="54" viewBox="0 0 50 54" fill="none" xmlns="http://www.w3.org/2000/svg">
<path d="M22.3056 1.00529C23.0586 0.35621 24.0133 0 25 0C25.9867 0 26.9414 0.35621 27.6944 1.00529L48.5278 18.9972C48.9891 19.3954 49.3597 19.8909 49.614 20.4495C49.8682 21.0081 49.9999 21.6164 50 22.232V48.8198C50 49.9447 49.561 51.0235 48.7796 51.8189C47.9982 52.6144 46.9384 53.0612 45.8333 53.0612H29.8611C29.3086 53.0612 28.7787 52.8378 28.388 52.4401C27.9973 52.0424 27.7778 51.503 27.7778 50.9405V33.2681H22.2222V50.9405C22.2222 51.503 22.0027 52.0424 21.612 52.4401C21.2213 52.8378 20.6914 53.0612 20.1389 53.0612H4.16667C3.0616 53.0612 2.00179 52.6144 1.22039 51.8189C0.438987 51.0235 0 49.9447 0 48.8198V22.232C0 20.9879 0.538889 19.8031 1.47222 18.9972L22.3056 1.00529ZM25 4.24006L4.16667 22.232V48.8198H18.0556V31.1474C18.0556 30.585 18.275 30.0456 18.6658 29.6478C19.0565 29.2501 19.5864 29.0267 20.1389 29.0267H29.8611C30.4136 29.0267 30.9435 29.2501 31.3342 29.6478C31.7249 30.0456 31.9444 30.585 31.9444 31.1474V48.8198H45.8333V22.232L25 4.24006Z" fill="white"/>
</svg>
