<svg width="33" height="35" viewBox="0 0 33 35" fill="none" xmlns="http://www.w3.org/2000/svg">
<path d="M14.7217 0.663107C15.2186 0.234962 15.8488 0 16.5 0C17.1512 0 17.7814 0.234962 18.2783 0.663107L32.0283 12.5309C32.3328 12.7935 32.5774 13.1204 32.7452 13.4888C32.913 13.8573 33 14.2585 33 14.6646V32.2023C33 32.9443 32.7103 33.6559 32.1945 34.1806C31.6788 34.7052 30.9793 35 30.25 35H19.7083C19.3437 35 18.9939 34.8526 18.7361 34.5903C18.4782 34.328 18.3333 33.9722 18.3333 33.6012V21.9441H14.6667V33.6012C14.6667 33.9722 14.5218 34.328 14.2639 34.5903C14.0061 34.8526 13.6563 35 13.2917 35H2.75C2.02065 35 1.32118 34.7052 0.805456 34.1806C0.289731 33.6559 0 32.9443 0 32.2023V14.6646C0 13.8439 0.355667 13.0624 0.971667 12.5309L14.7217 0.663107ZM16.5 2.79681L2.75 14.6646V32.2023H11.9167V20.5453C11.9167 20.1743 12.0615 19.8185 12.3194 19.5562C12.5773 19.2938 12.927 19.1465 13.2917 19.1465H19.7083C20.073 19.1465 20.4227 19.2938 20.6806 19.5562C20.9385 19.8185 21.0833 20.1743 21.0833 20.5453V32.2023H30.25V14.6646L16.5 2.79681Z" fill="white"/>
</svg>
