<svg width="50" height="51" viewBox="0 0 50 51" fill="none" xmlns="http://www.w3.org/2000/svg">
<path d="M15.0139 50.0462C13.6376 50.0462 12.459 49.5558 11.4781 48.5749C10.4972 47.594 10.0076 46.4162 10.0092 45.0416C10.0092 43.6653 10.4997 42.4868 11.4806 41.5058C12.4615 40.5249 13.6393 40.0353 15.0139 40.037C16.3901 40.037 17.5687 40.5274 18.5496 41.5083C19.5305 42.4893 20.0202 43.667 20.0185 45.0416C20.0185 46.4179 19.528 47.5965 18.5471 48.5774C17.5662 49.5583 16.3885 50.0479 15.0139 50.0462ZM40.037 50.0462C38.6607 50.0462 37.4821 49.5558 36.5012 48.5749C35.5203 47.594 35.0307 46.4162 35.0324 45.0416C35.0324 43.6653 35.5228 42.4868 36.5037 41.5058C37.4846 40.5249 38.6624 40.0353 40.037 40.037C41.4133 40.037 42.5919 40.5274 43.5728 41.5083C44.5537 42.4893 45.0433 43.667 45.0416 45.0416C45.0416 46.4179 44.5512 47.5965 43.5703 48.5774C42.5894 49.5583 41.4116 50.0479 40.037 50.0462ZM12.8869 10.0092L18.8925 22.5208H36.4086L43.29 10.0092H12.8869ZM10.5097 5.00462H47.4188C48.378 5.00462 49.1079 5.43252 49.6083 6.28831C50.1088 7.1441 50.1297 8.00907 49.6709 8.88321L40.7877 24.898C40.3289 25.7321 39.7134 26.3785 38.941 26.8373C38.1686 27.2961 37.3245 27.5254 36.4086 27.5254H17.7664L15.0139 32.5301H45.0416V37.5347H15.0139C13.1371 37.5347 11.7192 36.7106 10.7599 35.0624C9.80072 33.4142 9.75902 31.7777 10.6348 30.1529L14.0129 24.0222L5.00462 5.00462H0V0H8.13251L10.5097 5.00462Z" fill="white"/>
</svg>
