<svg width="45" height="45" viewBox="0 0 45 45" fill="none" xmlns="http://www.w3.org/2000/svg">
<path d="M13.125 41.25C12.0937 41.25 11.2106 40.8825 10.4756 40.1475C9.74062 39.4125 9.37375 38.53 9.375 37.5C9.375 36.4688 9.7425 35.5856 10.4775 34.8506C11.2125 34.1156 12.095 33.7488 13.125 33.75C14.1562 33.75 15.0394 34.1175 15.7744 34.8525C16.5094 35.5875 16.8762 36.47 16.875 37.5C16.875 38.5312 16.5075 39.4144 15.7725 40.1494C15.0375 40.8844 14.155 41.2513 13.125 41.25ZM31.875 41.25C30.8437 41.25 29.9606 40.8825 29.2256 40.1475C28.4906 39.4125 28.1237 38.53 28.125 37.5C28.125 36.4688 28.4925 35.5856 29.2275 34.8506C29.9625 34.1156 30.845 33.7488 31.875 33.75C32.9062 33.75 33.7894 34.1175 34.5244 34.8525C35.2594 35.5875 35.6262 36.47 35.625 37.5C35.625 38.5312 35.2575 39.4144 34.5225 40.1494C33.7875 40.8844 32.905 41.2513 31.875 41.25ZM11.5312 11.25L16.0312 20.625H29.1562L34.3125 11.25H11.5312ZM9.75 7.5H37.4062C38.125 7.5 38.6719 7.82062 39.0469 8.46187C39.4219 9.10313 39.4375 9.75125 39.0938 10.4063L32.4375 22.4062C32.0937 23.0312 31.6325 23.5156 31.0537 23.8594C30.475 24.2031 29.8425 24.375 29.1562 24.375H15.1875L13.125 28.125H35.625V31.875H13.125C11.7187 31.875 10.6562 31.2575 9.9375 30.0225C9.21875 28.7875 9.1875 27.5613 9.84375 26.3438L12.375 21.75L5.625 7.5H1.875V3.75H7.96875L9.75 7.5Z" fill="white"/>
</svg>
