<?xml version="1.0" encoding="UTF-8"?><svg id="Calque_2" xmlns="http://www.w3.org/2000/svg" viewBox="0 0 582.35 904.24"><defs><style>.cls-1{fill:#e84a97;}</style></defs><g id="Calque_1-2"><path class="cls-1" d="m193.92,259.45L12.86,200.64C51.63,84.07,161.59,0,291.19,0v188.65c-45.33.45-83.65,29.98-97.27,70.8Z"/><path class="cls-1" d="m582.35,613.09c0,160.79-130.37,291.16-291.16,291.16S0,773.88,0,613.09c0-31.33,4.96-61.44,14.1-89.72l179.71,58.39c-3.36,10.19-5.16,21.03-5.16,32.33,0,57.21,46.37,103.58,103.54,103.58s103.54-46.37,103.54-103.58c0-15.49-3.4-30.22-9.53-43.42-16.39-35.48-52.33-60.12-94.01-60.12-.35,0-.66,0-1.01.03v-188.65c32.92,0,64.63,5.48,94.15,15.56,62.38,21.31,115.19,63.17,150.39,117.54,29.49,45.53,46.61,99.8,46.61,158.05Z"/></g></svg>