<svg width="37" height="33" viewBox="0 0 37 33" fill="none" xmlns="http://www.w3.org/2000/svg">
<path d="M15.9773 24.9167L22.6709 21.1167C23.7977 20.4833 23.7977 18.8667 22.6709 18.2167L15.9773 14.4167C14.8505 13.7833 13.4545 14.6 13.4545 15.8667V23.45C13.4545 24.7333 14.8505 25.55 15.9773 24.9167ZM33.6364 6.33333H20.8714L25.8159 1.43333C26.1523 1.1 26.1523 0.583333 25.8159 0.25C25.4795 -0.0833333 24.9582 -0.0833333 24.6218 0.25L18.5 6.31667L12.3782 0.25C12.0418 -0.0833333 11.5205 -0.0833333 11.1841 0.25C10.8477 0.583333 10.8477 1.1 11.1841 1.43333L16.1286 6.33333H3.36364C2.47154 6.33333 1.61599 6.68452 0.985186 7.30964C0.354382 7.93477 0 8.78261 0 9.66667V29.6667C0 31.5 1.51364 33 3.36364 33H33.6364C35.4864 33 37 31.5 37 29.6667V9.66667C37 8.78261 36.6456 7.93477 36.0148 7.30964C35.384 6.68452 34.5285 6.33333 33.6364 6.33333ZM31.9545 29.6667H5.04545C4.12045 29.6667 3.36364 28.9167 3.36364 28V11.3333C3.36364 10.4167 4.12045 9.66667 5.04545 9.66667H31.9545C32.8795 9.66667 33.6364 10.4167 33.6364 11.3333V28C33.6364 28.9167 32.8795 29.6667 31.9545 29.6667Z" fill="white"/>
</svg>
