<svg width="50" height="45" viewBox="0 0 50 45" fill="none" xmlns="http://www.w3.org/2000/svg">
<path d="M21.5909 33.6712L30.6364 28.536C32.1591 27.6802 32.1591 25.4955 30.6364 24.6171L21.5909 19.482C20.0682 18.6261 18.1818 19.7297 18.1818 21.4414V31.6892C18.1818 33.4234 20.0682 34.527 21.5909 33.6712ZM45.4545 8.55856H28.2045L34.8864 1.93694C35.3409 1.48649 35.3409 0.788288 34.8864 0.337838C34.4318 -0.112613 33.7273 -0.112613 33.2727 0.337838L25 8.53604L16.7273 0.337838C16.2727 -0.112613 15.5682 -0.112613 15.1136 0.337838C14.6591 0.788288 14.6591 1.48649 15.1136 1.93694L21.7955 8.55856H4.54545C3.33992 8.55856 2.18377 9.03314 1.33133 9.8779C0.478895 10.7227 0 11.8684 0 13.0631V40.0901C0 42.5676 2.04545 44.5946 4.54545 44.5946H45.4545C47.9545 44.5946 50 42.5676 50 40.0901V13.0631C50 11.8684 49.5211 10.7227 48.6687 9.8779C47.8162 9.03314 46.6601 8.55856 45.4545 8.55856ZM43.1818 40.0901H6.81818C5.56818 40.0901 4.54545 39.0766 4.54545 37.8378V15.3153C4.54545 14.0766 5.56818 13.0631 6.81818 13.0631H43.1818C44.4318 13.0631 45.4545 14.0766 45.4545 15.3153V37.8378C45.4545 39.0766 44.4318 40.0901 43.1818 40.0901Z" fill="white"/>
</svg>
