<svg width="30" height="30" viewBox="0 0 30 30" fill="none" xmlns="http://www.w3.org/2000/svg">
<path d="M3.75 1.875C3.25272 1.875 2.77581 2.07254 2.42417 2.42417C2.07254 2.77581 1.875 3.25272 1.875 3.75V26.25C1.875 26.7473 2.07254 27.2242 2.42417 27.5758C2.77581 27.9275 3.25272 28.125 3.75 28.125H26.25C26.7473 28.125 27.2242 27.9275 27.5758 27.5758C27.9275 27.2242 28.125 26.7473 28.125 26.25V3.75C28.125 3.25272 27.9275 2.77581 27.5758 2.42417C27.2242 2.07254 26.7473 1.875 26.25 1.875H17.8125C17.3152 1.875 16.8383 2.07254 16.4867 2.42417C16.135 2.77581 15.9375 3.25272 15.9375 3.75V17.4244L20.8988 12.4613C21.0748 12.2852 21.3135 12.1863 21.5625 12.1863C21.8115 12.1863 22.0502 12.2852 22.2262 12.4613C22.4023 12.6373 22.5012 12.876 22.5012 13.125C22.5012 13.374 22.4023 13.6127 22.2262 13.7887L15.6637 20.3512C15.5767 20.4386 15.4732 20.5078 15.3593 20.5551C15.2454 20.6023 15.1233 20.6267 15 20.6267C14.8767 20.6267 14.7546 20.6023 14.6407 20.5551C14.5268 20.5078 14.4233 20.4386 14.3363 20.3512L7.77375 13.7887C7.68658 13.7016 7.61744 13.5981 7.57027 13.4842C7.5231 13.3703 7.49882 13.2483 7.49882 13.125C7.49882 13.0017 7.5231 12.8797 7.57027 12.7658C7.61744 12.6519 7.68658 12.5484 7.77375 12.4613C7.86091 12.3741 7.96439 12.3049 8.07828 12.2578C8.19217 12.2106 8.31423 12.1863 8.4375 12.1863C8.56077 12.1863 8.68283 12.2106 8.79672 12.2578C8.91061 12.3049 9.01408 12.3741 9.10125 12.4613L14.0625 17.4244V3.75C14.0625 2.75544 14.4576 1.80161 15.1609 1.09835C15.8641 0.395088 16.8179 0 17.8125 0L26.25 0C27.2446 0 28.1984 0.395088 28.9016 1.09835C29.6049 1.80161 30 2.75544 30 3.75V26.25C30 27.2446 29.6049 28.1984 28.9016 28.9016C28.1984 29.6049 27.2446 30 26.25 30H3.75C2.75544 30 1.80161 29.6049 1.09835 28.9016C0.395088 28.1984 0 27.2446 0 26.25V3.75C0 2.75544 0.395088 1.80161 1.09835 1.09835C1.80161 0.395088 2.75544 0 3.75 0L8.4375 0C8.68614 0 8.9246 0.0987721 9.10041 0.274587C9.27623 0.450403 9.375 0.68886 9.375 0.9375C9.375 1.18614 9.27623 1.4246 9.10041 1.60041C8.9246 1.77623 8.68614 1.875 8.4375 1.875H3.75Z" fill="white"/>
</svg>
