<svg width="50" height="59" viewBox="0 0 50 59" fill="none" xmlns="http://www.w3.org/2000/svg">
<path d="M42.7101 8.3341C41.629 8.33257 40.5614 8.57368 39.5859 9.03965V7.29268C39.5865 5.55521 38.9666 3.87464 37.8378 2.5538C36.709 1.23296 35.1455 0.35873 33.4292 0.0886366C31.7128 -0.181457 29.9565 0.170353 28.4766 1.08067C26.9966 1.99098 25.8905 3.39994 25.3575 5.05364C24.2474 4.4515 22.9999 4.14808 21.7372 4.17314C20.4745 4.1982 19.24 4.55086 18.1546 5.19657C17.0692 5.84229 16.1702 6.7589 15.5457 7.8566C14.9211 8.95429 14.5925 10.1954 14.5919 11.4583V28.121L13.5974 26.525C12.6314 24.8579 11.0447 23.6411 9.18412 23.1405C7.32358 22.6398 5.34049 22.8961 3.66835 23.8533C1.9962 24.8105 0.770989 26.3907 0.260522 28.2486C-0.249945 30.1064 -0.00414897 32.0909 0.944184 33.768C5.10984 42.5602 8.47621 48.7956 12.3268 52.6931C16.2165 56.6401 20.6321 58.322 27.0889 58.322C33.1632 58.3151 38.9867 55.899 43.2819 51.6039C47.5771 47.3087 49.9931 41.4852 50 35.4109V15.624C50 13.6906 49.232 11.8364 47.8648 10.4693C46.4977 9.10214 44.6435 8.3341 42.7101 8.3341ZM45.8343 35.4109C45.8288 40.3808 43.8521 45.1456 40.3378 48.6598C36.8236 52.1741 32.0588 54.1508 27.0889 54.1563C21.7829 54.1563 18.3644 52.8858 15.2871 49.7694C11.8426 46.278 8.67148 40.3576 4.67245 31.9169C4.64901 31.8653 4.62294 31.8149 4.59434 31.7659C4.18004 31.0481 4.06784 30.1952 4.28243 29.3947C4.49702 28.5942 5.02082 27.9117 5.73859 27.4974C6.45637 27.0831 7.30933 26.9709 8.10983 27.1855C8.91032 27.4001 9.59279 27.9239 10.0071 28.6417C10.0177 28.6625 10.0299 28.6826 10.0435 28.7016L14.9043 36.5122C15.1431 36.8975 15.5011 37.1943 15.9239 37.3577C16.3467 37.5212 16.8113 37.5422 17.2471 37.4176C17.683 37.293 18.0663 37.0297 18.3389 36.6675C18.6115 36.3054 18.7585 35.8642 18.7576 35.4109V11.4583C18.7576 10.6297 19.0867 9.83508 19.6726 9.24917C20.2586 8.66326 21.0532 8.3341 21.8818 8.3341C22.7104 8.3341 23.5051 8.66326 24.091 9.24917C24.6769 9.83508 25.0061 10.6297 25.0061 11.4583V27.0796C25.0061 27.632 25.2255 28.1617 25.6161 28.5523C26.0067 28.9429 26.5365 29.1624 27.0889 29.1624C27.6413 29.1624 28.1711 28.9429 28.5617 28.5523C28.9523 28.1617 29.1717 27.632 29.1717 27.0796V7.29268C29.1717 6.46408 29.5009 5.66942 30.0868 5.08351C30.6727 4.4976 31.4674 4.16844 32.296 4.16844C33.1246 4.16844 33.9192 4.4976 34.5051 5.08351C35.091 5.66942 35.4202 6.46408 35.4202 7.29268V27.0796C35.4202 27.632 35.6396 28.1617 36.0302 28.5523C36.4209 28.9429 36.9506 29.1624 37.503 29.1624C38.0554 29.1624 38.5852 28.9429 38.9758 28.5523C39.3664 28.1617 39.5859 27.632 39.5859 27.0796V15.624C39.5859 14.7954 39.915 14.0007 40.5009 13.4148C41.0868 12.8289 41.8815 12.4998 42.7101 12.4998C43.5387 12.4998 44.3334 12.8289 44.9193 13.4148C45.5052 14.0007 45.8343 14.7954 45.8343 15.624V35.4109Z" fill="white"/>
</svg>
