<svg width="34" height="29" viewBox="0 0 34 29" fill="none" xmlns="http://www.w3.org/2000/svg">
<path d="M30.782 28.157C30.2437 28.157 29.6786 27.9921 29.1942 27.6899L21.04 22.4153C20.7406 22.2182 20.53 21.908 20.4543 21.5526C20.3786 21.1973 20.4441 20.8258 20.6363 20.5197C20.8293 20.2141 21.1332 19.9991 21.4813 19.9218C21.8294 19.8446 22.1933 19.9114 22.4932 20.1076L30.6474 25.3823C30.6474 25.3823 30.8358 25.4372 30.9165 25.3823C30.9973 25.3273 31.0511 25.2449 31.0511 25.135V3.65168C31.0511 3.65168 30.9973 3.45937 30.9165 3.40443C30.8767 3.37726 30.8299 3.36276 30.782 3.36276C30.7341 3.36276 30.6872 3.37726 30.6474 3.40443L22.4932 8.67911C22.1933 8.87532 21.8294 8.94213 21.4813 8.86488C21.1332 8.78763 20.8293 8.57263 20.6363 8.26702C20.4441 7.96087 20.3786 7.58939 20.4543 7.23405C20.53 6.87872 20.7406 6.5685 21.04 6.37144L29.1942 1.09675C30.1092 0.519837 31.2664 0.464892 32.2083 1.01434C33.1502 1.53631 33.7422 2.55279 33.7422 3.65168V25.135C33.7422 26.2339 33.1502 27.2504 32.2083 27.7724C31.7508 28.0196 31.2664 28.157 30.782 28.157Z" fill="white"/>
<path d="M18.7305 28.3621C18.1654 28.3621 17.6002 28.1972 17.0889 27.8676L1.31867 17.2083C0.48441 16.6589 0 15.6973 0 14.6808C0 13.6644 0.48441 12.7303 1.31867 12.1534L17.1158 1.49414C18.0308 0.889753 19.188 0.834808 20.1568 1.35678C21.1256 1.87876 21.7177 2.89523 21.7177 4.02159V25.3676C21.7177 26.4939 21.1256 27.5104 20.1568 28.0324C19.7262 28.2796 19.2418 28.3895 18.7574 28.3895L18.7305 28.3621ZM2.79881 14.4611C2.79881 14.4611 2.69116 14.6259 2.69116 14.6808L18.6229 25.5874C18.6229 25.5874 18.8112 25.6423 18.892 25.5874C18.9727 25.5324 19.0265 25.45 19.0265 25.3401V3.99412C19.0265 3.99412 18.9727 3.80182 18.892 3.74687C18.8521 3.71971 18.8053 3.70521 18.7574 3.70521C18.7095 3.70521 18.6627 3.71971 18.6229 3.74687L2.79881 14.4611Z" fill="white"/>
</svg>
