<svg width="50" height="42" viewBox="0 0 50 42" fill="none" xmlns="http://www.w3.org/2000/svg">
<path d="M45.6134 40.7877C44.8159 40.7877 43.9784 40.5434 43.2606 40.0956L31.1775 32.2795C30.7339 31.9875 30.4218 31.5278 30.3097 31.0012C30.1975 30.4747 30.2945 29.9242 30.5793 29.4705C30.8654 29.0177 31.3157 28.6991 31.8315 28.5846C32.3473 28.4702 32.8865 28.5692 33.3309 28.8599L45.414 36.676C45.414 36.676 45.6932 36.7575 45.8128 36.676C45.9324 36.5946 46.0122 36.4725 46.0122 36.3097V4.47522C46.0122 4.47522 45.9324 4.19026 45.8128 4.10884C45.7538 4.06859 45.6844 4.0471 45.6134 4.0471C45.5424 4.0471 45.473 4.06859 45.414 4.10884L33.3309 11.925C32.8865 12.2157 32.3473 12.3147 31.8315 12.2002C31.3157 12.0858 30.8654 11.7672 30.5793 11.3143C30.2945 10.8607 30.1975 10.3102 30.3097 9.78366C30.4218 9.25711 30.7339 8.79744 31.1775 8.50542L43.2606 0.689288C44.6165 -0.165601 46.3312 -0.247019 47.727 0.567161C49.1227 1.34063 50 2.84686 50 4.47522V36.3097C50 37.938 49.1227 39.4443 47.727 40.2177C47.049 40.5841 46.3312 40.7877 45.6134 40.7877Z" fill="white"/>
<path d="M27.7552 41.091C26.9178 41.091 26.0803 40.8468 25.3227 40.3583L1.95403 24.5632C0.717808 23.749 0 22.3242 0 20.818C0 19.3117 0.717808 17.9276 1.95403 17.0727L25.3625 1.27764C26.7184 0.382044 28.4332 0.300625 29.8688 1.0741C31.3044 1.84757 32.1817 3.3538 32.1817 5.02287V36.6538C32.1817 38.3228 31.3044 39.8291 29.8688 40.6025C29.2307 40.9689 28.5129 41.1317 27.7951 41.1317L27.7552 41.091ZM4.14733 20.4923C4.14733 20.4923 3.98782 20.7365 3.98782 20.818L27.5957 36.9794C27.5957 36.9794 27.8749 37.0608 27.9945 36.9794C28.1141 36.898 28.1939 36.7759 28.1939 36.6131V4.98216C28.1939 4.98216 28.1141 4.6972 27.9945 4.61578C27.9355 4.57552 27.8661 4.55404 27.7951 4.55404C27.7241 4.55404 27.6547 4.57552 27.5957 4.61578L4.14733 20.4923Z" fill="white"/>
</svg>
