<svg width="50" height="53" viewBox="0 0 50 53" fill="none" xmlns="http://www.w3.org/2000/svg">
<path d="M25.0009 17.0473C22.5332 17.0473 20.1666 18.0441 18.4217 19.8184C16.6768 21.5927 15.6965 23.9992 15.6965 26.5085C15.6965 29.0178 16.6768 31.4243 18.4217 33.1986C20.1666 34.973 22.5332 35.9698 25.0009 35.9698C27.4685 35.9698 29.8351 34.973 31.58 33.1986C33.3249 31.4243 34.3052 29.0178 34.3052 26.5085C34.3052 23.9992 33.3249 21.5927 31.58 19.8184C29.8351 18.0441 27.4685 17.0473 25.0009 17.0473ZM19.4183 26.5085C19.4183 25.0029 20.0064 23.559 21.0534 22.4944C22.1003 21.4299 23.5203 20.8318 25.0009 20.8318C26.4815 20.8318 27.9014 21.4299 28.9484 22.4944C29.9953 23.559 30.5835 25.0029 30.5835 26.5085C30.5835 28.0141 29.9953 29.458 28.9484 30.5226C27.9014 31.5872 26.4815 32.1853 25.0009 32.1853C23.5203 32.1853 22.1003 31.5872 21.0534 30.5226C20.0064 29.458 19.4183 28.0141 19.4183 26.5085ZM19.1205 52.2961C21.0465 52.7635 23.0209 53 25.0009 53C26.979 52.9969 28.95 52.7588 30.8738 52.2904C31.4265 52.1579 31.9254 51.8547 32.3019 51.4224C32.6784 50.9901 32.9141 50.4499 32.9765 49.8759L33.412 45.8454C33.454 45.4057 33.5983 44.9825 33.833 44.6108C34.0677 44.2391 34.386 43.9295 34.7616 43.7076C35.1373 43.4857 35.5595 43.358 35.9933 43.3348C36.4271 43.3117 36.8601 43.394 37.2565 43.5747L40.8945 45.1945C41.4153 45.4275 41.9945 45.4899 42.5518 45.3729C43.109 45.2559 43.6166 44.9654 44.004 44.5416C46.6921 41.5965 48.6987 38.0775 49.8769 34.2421C50.0459 33.6874 50.0408 33.0929 49.8624 32.5412C49.684 31.9895 49.3411 31.508 48.8814 31.1634L45.6639 28.7508C45.3125 28.4904 45.0267 28.1491 44.8298 27.7549C44.6329 27.3607 44.5305 26.9246 44.5311 26.4825C44.5316 26.0403 44.635 25.6045 44.8329 25.2108C45.0308 24.8171 45.3174 24.4765 45.6695 24.217L48.8702 21.8138C49.3326 21.4702 49.6776 20.9879 49.8568 20.4348C50.036 19.8816 50.0404 19.2853 49.8695 18.7295C48.6934 14.8927 46.6858 11.3732 43.9947 8.42997C43.6056 8.00694 43.0971 7.717 42.5392 7.60008C41.9813 7.48316 41.4015 7.54502 40.8796 7.77714L37.2584 9.39691C36.8615 9.57284 36.4294 9.65134 35.9972 9.62605C35.5649 9.60077 35.1445 9.47241 34.7701 9.25135C34.3956 9.0303 34.0776 8.72275 33.8417 8.35357C33.6057 7.98439 33.4585 7.56394 33.412 7.12621L32.9728 3.11464C32.9114 2.53383 32.6724 1.98721 32.2896 1.55171C31.9067 1.11621 31.3992 0.813749 30.8384 0.686886C28.9275 0.252706 26.9773 0.0224974 25.0195 0C23.05 0.0237137 21.0882 0.253893 19.1652 0.686886C18.6044 0.81158 18.0964 1.11264 17.7133 1.54738C17.3302 1.98213 17.0914 2.52848 17.0308 3.10896L16.5897 7.12432C16.5416 7.56271 16.3931 7.98354 16.1562 8.35311C15.9194 8.72267 15.6007 9.0307 15.2257 9.25252C14.8508 9.47434 14.4299 9.6038 13.9969 9.63051C13.5639 9.65723 13.1308 9.58046 12.7322 9.40637L9.11093 7.78471C8.58843 7.55904 8.0105 7.50154 7.4549 7.61995C6.8993 7.73836 6.3927 8.02699 6.00328 8.447C3.31179 11.393 1.30261 14.9141 0.122948 18.7522C-0.0449504 19.3066 -0.0391445 19.9004 0.139562 20.4513C0.318268 21.0023 0.66103 21.483 1.12037 21.8271L4.33037 24.234C4.68004 24.4957 4.96431 24.8373 5.16024 25.2312C5.35616 25.6252 5.45824 26.0604 5.45824 26.5019C5.45824 26.9434 5.35616 27.3786 5.16024 27.7726C4.96431 28.1665 4.68004 28.5081 4.33037 28.7698L1.12037 31.1824C0.659294 31.5271 0.315538 32.0096 0.137066 32.5625C-0.0414053 33.1154 -0.0456904 33.7112 0.124809 34.2667C1.30392 38.1073 3.31311 41.6309 6.00514 44.5795C6.26107 44.8593 6.57136 45.082 6.91635 45.2334C7.26135 45.3849 7.63353 45.4619 8.0093 45.4594C8.38705 45.4594 8.76109 45.3799 9.10907 45.2266L12.7471 43.6012C13.1439 43.4269 13.5753 43.3496 14.0068 43.3757C14.4383 43.4017 14.8578 43.5303 15.2315 43.7512C15.6053 43.972 15.9228 44.2789 16.1587 44.6472C16.3946 45.0156 16.5422 45.435 16.5897 45.8719L17.0271 49.8948C17.0906 50.4657 17.3257 51.0028 17.7003 51.4328C18.0749 51.8629 18.5709 52.1631 19.1205 52.2961ZM29.3571 48.7651C26.4859 49.364 23.5251 49.364 20.6539 48.7651L20.291 45.4726C20.1136 43.8619 19.3583 42.3743 18.1696 41.2945C17.239 40.4613 16.0956 39.9125 14.8714 39.7116C13.6472 39.5107 12.3921 39.6659 11.2509 40.1592L8.26237 41.4838C6.3345 39.239 4.85092 36.6368 3.89306 33.8202L6.54293 31.8295C7.3616 31.2161 8.02708 30.4156 8.4857 29.4927C8.94433 28.5698 9.18327 27.5502 9.18327 26.5161C9.18327 25.482 8.94433 24.4624 8.4857 23.5395C8.02708 22.6165 7.3616 21.8161 6.54293 21.2026L3.89864 19.2177C4.85762 16.4038 6.34113 13.8044 8.26796 11.5616L11.2453 12.8862C12.066 13.2547 12.9535 13.4442 13.8506 13.4425C15.4481 13.4374 16.9881 12.8355 18.1776 11.7511C19.3671 10.6668 20.1233 9.17569 20.3022 7.56143L20.6632 4.25567C22.1035 3.97183 23.5661 3.82045 25.0306 3.80153C26.4858 3.82045 27.9373 3.97183 29.3665 4.25567L29.7126 7.54818C29.885 9.16348 30.6385 10.657 31.8284 11.7414C32.7596 12.5798 33.9061 13.1317 35.134 13.3327C36.362 13.5337 37.6209 13.3756 38.7638 12.8768L41.7412 11.5522C43.6707 13.7943 45.1557 16.3947 46.1142 19.2101L43.4662 21.1894C42.6434 21.8007 41.974 22.6009 41.5125 23.5248C41.0511 24.4487 40.8105 25.4704 40.8105 26.5066C40.8105 27.5429 41.0511 28.5645 41.5125 29.4885C41.974 30.4124 42.6434 31.2125 43.4662 31.8238L46.1124 33.8107C45.1529 36.6209 43.6715 39.2174 41.7487 41.4592L38.7713 40.1346C37.8396 39.713 36.823 39.5216 35.8046 39.576C34.7862 39.6304 33.7949 39.9291 32.9118 40.4477C32.0286 40.9663 31.2787 41.69 30.7234 42.5597C30.168 43.4295 29.8229 44.4205 29.7163 45.4518L29.3571 48.7651Z" fill="white"/>
</svg>
