<svg width="32" height="32" viewBox="0 0 32 32" fill="none" xmlns="http://www.w3.org/2000/svg">
<path d="M15.9543 10.3007C14.4549 10.3007 13.0169 10.8989 11.9566 11.9637C10.8964 13.0286 10.3007 14.4728 10.3007 15.9787C10.3007 17.4846 10.8964 18.9288 11.9566 19.9936C13.0169 21.0585 14.4549 21.6567 15.9543 21.6567C17.4538 21.6567 18.8918 21.0585 19.952 19.9936C21.0123 18.9288 21.6079 17.4846 21.6079 15.9787C21.6079 14.4728 21.0123 13.0286 19.952 11.9637C18.8918 10.8989 17.4538 10.3007 15.9543 10.3007ZM12.5622 15.9787C12.5622 15.0751 12.9196 14.2086 13.5557 13.5697C14.1919 12.9308 15.0547 12.5719 15.9543 12.5719C16.854 12.5719 17.7168 12.9308 18.353 13.5697C18.9891 14.2086 19.3465 15.0751 19.3465 15.9787C19.3465 16.8822 18.9891 17.7488 18.353 18.3877C17.7168 19.0266 16.854 19.3855 15.9543 19.3855C15.0547 19.3855 14.1919 19.0266 13.5557 18.3877C12.9196 17.7488 12.5622 16.8822 12.5622 15.9787ZM12.3813 31.4546C13.5516 31.7351 14.7513 31.8771 15.9543 31.8771C17.1563 31.8752 18.3539 31.7323 19.5229 31.4512C19.8588 31.3717 20.1619 31.1898 20.3907 30.9303C20.6194 30.6709 20.7626 30.3467 20.8006 30.0022L21.0652 27.5834C21.0907 27.3195 21.1784 27.0655 21.321 26.8425C21.4636 26.6194 21.657 26.4336 21.8853 26.3004C22.1135 26.1673 22.3701 26.0906 22.6337 26.0767C22.8973 26.0628 23.1604 26.1122 23.4012 26.2207L25.6118 27.1927C25.9282 27.3326 26.2802 27.37 26.6188 27.2998C26.9574 27.2296 27.2658 27.0553 27.5012 26.801C29.1346 25.0335 30.3538 22.9216 31.0698 20.6199C31.1724 20.287 31.1693 19.9302 31.0609 19.5991C30.9525 19.268 30.7442 18.979 30.4648 18.7723L28.5098 17.3244C28.2963 17.1681 28.1226 16.9633 28.003 16.7267C27.8833 16.4901 27.8211 16.2284 27.8215 15.9631C27.8218 15.6977 27.8846 15.4362 28.0049 15.1999C28.1251 14.9636 28.2993 14.7592 28.5132 14.6035L30.4581 13.1613C30.739 12.955 30.9486 12.6656 31.0575 12.3337C31.1664 12.0017 31.1691 11.6438 31.0652 11.3102C30.3506 9.00769 29.1308 6.89547 27.4956 5.12917C27.2591 4.87529 26.9502 4.70129 26.6112 4.63112C26.2722 4.56096 25.9199 4.59808 25.6028 4.73738L23.4024 5.70946C23.1612 5.81504 22.8987 5.86215 22.636 5.84698C22.3734 5.8318 22.1179 5.75477 21.8904 5.62211C21.6629 5.48944 21.4696 5.30487 21.3263 5.08332C21.1829 4.86176 21.0935 4.60943 21.0652 4.34674L20.7983 1.93927C20.761 1.5907 20.6158 1.26266 20.3832 1.0013C20.1505 0.739943 19.8421 0.558425 19.5014 0.482291C18.3403 0.221726 17.1553 0.0835698 15.9656 0.0700684C14.7689 0.0842997 13.5769 0.222438 12.4084 0.482291C12.0676 0.557124 11.759 0.737802 11.5262 0.998704C11.2934 1.25961 11.1483 1.58749 11.1115 1.93586L10.8435 4.3456C10.8142 4.6087 10.724 4.86125 10.5801 5.08304C10.4362 5.30483 10.2425 5.48968 10.0147 5.62281C9.78684 5.75593 9.53112 5.83362 9.26801 5.84965C9.0049 5.86568 8.74171 5.81962 8.49951 5.71514L6.29914 4.74193C5.98165 4.60649 5.63048 4.57199 5.29288 4.64305C4.95528 4.71411 4.64746 4.88732 4.41084 5.13939C2.77541 6.90741 1.55456 9.02051 0.837768 11.3239C0.735748 11.6566 0.739276 12.013 0.847864 12.3436C0.956451 12.6742 1.16472 12.9627 1.44383 13.1692L3.39432 14.6137C3.60679 14.7707 3.77953 14.9757 3.89858 15.2121C4.01762 15.4486 4.07965 15.7098 4.07965 15.9747C4.07965 16.2396 4.01762 16.5009 3.89858 16.7373C3.77953 16.9737 3.60679 17.1787 3.39432 17.3357L1.44383 18.7836C1.16367 18.9905 0.954792 19.2801 0.846347 19.6119C0.737902 19.9437 0.735299 20.3013 0.838899 20.6346C1.55536 22.9395 2.7762 25.0541 4.41197 26.8237C4.56747 26.9916 4.75602 27.1252 4.96565 27.2161C5.17528 27.307 5.40142 27.3532 5.62975 27.3517C5.85929 27.3517 6.08656 27.304 6.298 27.212L8.50856 26.2366C8.74967 26.1319 9.01185 26.0856 9.27404 26.1012C9.53623 26.1168 9.79111 26.194 10.0182 26.3266C10.2453 26.4591 10.4383 26.6433 10.5816 26.8643C10.7249 27.0854 10.8146 27.3371 10.8435 27.5993L11.1092 30.0136C11.1478 30.3562 11.2907 30.6785 11.5183 30.9366C11.7459 31.1947 12.0473 31.3748 12.3813 31.4546ZM18.6013 29.3356C16.8567 29.695 15.0576 29.695 13.313 29.3356L13.0925 27.3597C12.9847 26.393 12.5258 25.5003 11.8035 24.8523C11.238 24.3522 10.5432 24.0229 9.79937 23.9023C9.05552 23.7817 8.29288 23.8749 7.59946 24.1709L5.78353 24.9658C4.61209 23.6186 3.71063 22.057 3.1286 20.3666L4.73874 19.172C5.23619 18.8039 5.64055 18.3235 5.91923 17.7696C6.1979 17.2157 6.34309 16.6038 6.34309 15.9832C6.34309 15.3626 6.1979 14.7507 5.91923 14.1969C5.64055 13.643 5.23619 13.1626 4.73874 12.7945L3.13199 11.6032C3.7147 9.91453 4.61613 8.35451 5.78692 7.00858L7.59607 7.8035C8.09472 8.02465 8.63398 8.13838 9.17907 8.13737C10.1498 8.13431 11.0855 7.77305 11.8083 7.1223C12.5311 6.47155 12.9906 5.5767 13.0993 4.60792L13.3186 2.62403C14.1938 2.45369 15.0826 2.36284 15.9724 2.35149C16.8566 2.36284 17.7386 2.45369 18.607 2.62403L18.8173 4.59998C18.9221 5.56937 19.3799 6.46565 20.1029 7.11647C20.6688 7.61961 21.3654 7.95082 22.1116 8.07146C22.8577 8.19209 23.6226 8.0972 24.3171 7.79782L26.1263 7.0029C27.2987 8.34847 28.201 9.90904 28.7835 11.5987L27.1744 12.7865C26.6744 13.1534 26.2677 13.6336 25.9873 14.1881C25.7069 14.7425 25.5608 15.3557 25.5608 15.9776C25.5608 16.5994 25.7069 17.2126 25.9873 17.767C26.2677 18.3215 26.6744 18.8017 27.1744 19.1686L28.7823 20.361C28.1993 22.0474 27.2992 23.6057 26.1308 24.9511L24.3216 24.1561C23.7555 23.9031 23.1378 23.7882 22.519 23.8209C21.9002 23.8535 21.2978 24.0328 20.7612 24.344C20.2246 24.6553 19.769 25.0896 19.4315 25.6115C19.094 26.1335 18.8843 26.7282 18.8196 27.3472L18.6013 29.3356Z" fill="white"/>
</svg>
